# xmcd
#
# Track frame offsets: 
#        150
#        13370
#        27192
#        37177
#        55551
#        77838
#        98067
#        114649
#        134238
#        160288
#        179560
#        190419
#        201681
#        213722
#        225923
#        239032
#
# Disc length: 3367 seconds
#
# Revision: 0
# Processed by: cddbd v1.5.1PL0 Copyright (c) Steve Scherf et al.
# Submitted via: ExactAudioCopy v0.95a5
#
DISCID=f30d2510
DTITLE=Various Artist - Motown Duets
DYEAR=1900
DGENRE=Soul
TTITLE0=Gaye, Marvin and Kim Weston - It Takes Two
TTITLE1=Ross, Diana and Marvin Gaye - You Are Everything
TTITLE2=Gaye, Marvin and Tammi Terrell - Ain't Nothing Like The Real Thi
TTITLE2=ng
TTITLE3=Edwards, Dennis and Siedah Garrett - Don't Look Any Further
TTITLE4=Shanice and Johnny Gill - Silent Prayer
TTITLE5=Richie, Lionel and Diana Ross - Endless Love
TTITLE6=Preston, Billy and Syrecta - With You I'm Born Again
TTITLE7=Jackson, Jermaine and Syreeta - Stay With Love
TTITLE8=James, Rick and Teena Marie - Fire and Desire
TTITLE9=Gill, Johnny and Stacey Lattisaw
TTITLE10=Wells, Mary and Marvin Gaye - What's The Matter With You Baby
TTITLE11=Supremes, The and The Temptations - I Second That Emotion
TTITLE12=Jackson, Chuck and Yvonne Fair - It Must Be Love Baby
TTITLE13=Starr, Edwin and Blinky Williams - We'll Find A Way
TTITLE14=Gaye, Marvin and Diana Ross - Stop, Look, Listen (To Your Heart
TTITLE14=)
TTITLE15=Gaye, Marvin and Tammi Terrell - The Onion Song
EXTD=
EXTT0=
EXTT1=
EXTT2=
EXTT3=
EXTT4=
EXTT5=
EXTT6=
EXTT7=
EXTT8=
EXTT9=
EXTT10=
EXTT11=
EXTT12=
EXTT13=
EXTT14=
EXTT15=
PLAYORDER=
